<svg width="100" height="100" viewBox="0 0 100 100" fill="none" xmlns="http://www.w3.org/2000/svg">
<path d="M50.0001 91.6666C40.3473 89.236 32.3779 83.6971 26.0918 75.0499C19.8056 66.4027 16.664 56.8027 16.6667 46.2499V20.8333L50.0001 8.33325L83.3334 20.8333V46.2499C83.3334 56.8055 80.1917 66.4069 73.9084 75.0541C67.6251 83.7013 59.6556 89.2388 50.0001 91.6666ZM50.0001 82.9166C56.7362 80.8333 62.3612 76.718 66.8751 70.5708C71.389 64.4235 74.0279 57.5666 74.7917 49.9999H50.0001V17.1874L25.0001 26.5624V48.1249C25.0001 48.611 25.0695 49.236 25.2084 49.9999H50.0001V82.9166Z" fill="white"/>
</svg>
