 <svg width="1065" height="737" viewBox="0 0 1065 737" fill="none" xmlns="http://www.w3.org/2000/svg">
<path d="M1128.66 -69.6092C1103.74 -119.48 1071.17 -158.388 1055.91 -156.515C1040.65 -154.641 1048.48 -112.694 1073.4 -62.824C1098.32 -12.9537 1130.89 25.9554 1146.15 24.0818C1161.41 22.2081 1153.58 -19.7389 1128.66 -69.6092Z" stroke="url(#paint0_linear_2_11348)" stroke-width="2" stroke-miterlimit="10"/>
<path d="M1130.11 -70.9014C1097.74 -128.636 1058.49 -173.472 1042.44 -171.045C1026.39 -168.619 1039.62 -119.848 1071.98 -62.1135C1104.35 -4.37867 1143.6 40.4573 1159.65 38.0306C1175.7 35.6038 1162.48 -13.1666 1130.11 -70.9014Z" stroke="url(#paint1_linear_2_11348)" stroke-width="2" stroke-miterlimit="10"/>
<path d="M1131.71 -71.7479C1090.72 -138.007 1043.86 -189.287 1027.06 -186.286C1010.25 -183.284 1029.86 -127.137 1070.86 -60.8776C1111.85 5.3815 1158.71 56.6618 1175.51 53.6601C1192.32 50.6583 1172.71 -5.48876 1131.71 -71.7479Z" stroke="url(#paint2_linear_2_11348)" stroke-width="2" stroke-miterlimit="10"/>
<path d="M1133.41 -72.4872C1082.41 -148.062 1026.67 -206.369 1008.9 -202.72C991.142 -199.071 1018.09 -134.847 1069.09 -59.2723C1120.09 16.3025 1175.83 74.6099 1193.59 70.9607C1211.35 67.3115 1184.41 3.0876 1133.41 -72.4872Z" stroke="url(#paint3_linear_2_11348)" stroke-width="2" stroke-miterlimit="10"/>
<path d="M1135.19 -74.1117C1072.82 -159.595 1006.92 -225.336 988.007 -220.949C969.091 -216.562 1004.32 -143.708 1066.69 -58.2246C1129.05 27.2585 1194.95 92.9999 1213.86 88.6128C1232.78 84.2257 1197.55 11.3713 1135.19 -74.1117Z" stroke="url(#paint4_linear_2_11348)" stroke-width="2" stroke-miterlimit="10"/>
<path d="M1137.71 -75.9917C1062.41 -172.092 984.96 -245.758 964.71 -240.528C944.46 -235.298 989.081 -153.153 1064.37 -57.0521C1139.67 39.0488 1217.12 112.714 1237.37 107.484C1257.62 102.254 1213 20.1091 1137.71 -75.9917Z" stroke="url(#paint5_linear_2_11348)" stroke-width="2" stroke-miterlimit="10"/>
<path d="M1140.44 -77.0684C1050.85 -184.09 960.594 -265.827 938.849 -259.634C917.105 -253.441 972.105 -161.663 1061.7 -54.6418C1151.29 52.3795 1241.54 134.117 1263.29 127.924C1285.03 121.731 1230.03 29.9528 1140.44 -77.0684Z" stroke="url(#paint6_linear_2_11348)" stroke-width="2" stroke-miterlimit="10"/>
<path d="M1143.61 -79.4983C1037.96 -198.054 933.355 -288.249 909.964 -280.956C886.574 -273.662 953.256 -171.642 1058.9 -53.0862C1164.55 65.4693 1269.16 155.665 1292.55 148.371C1315.94 141.078 1249.26 39.0572 1143.61 -79.4983Z" stroke="url(#paint7_linear_2_11348)" stroke-width="2" stroke-miterlimit="10"/>
<path d="M1147.4 -82.1786C1024.28 -212.298 903.71 -310.729 878.103 -302.031C852.497 -293.333 931.546 -180.799 1054.67 -50.6795C1177.78 79.4399 1298.35 177.871 1323.96 169.173C1349.56 160.475 1270.51 47.9408 1147.4 -82.1786Z" stroke="url(#paint8_linear_2_11348)" stroke-width="2" stroke-miterlimit="10"/>
<path d="M1151.91 -84.7204C1009.55 -226.681 871.521 -333.421 843.613 -323.132C815.706 -312.843 908.489 -189.421 1050.85 -47.4604C1193.21 94.4998 1331.24 201.241 1359.15 190.952C1387.06 180.662 1294.27 57.2398 1151.91 -84.7204Z" stroke="url(#paint9_linear_2_11348)" stroke-width="2" stroke-miterlimit="10"/>
<path d="M1156.47 -88.3734C993.41 -241.901 836.348 -356.422 805.657 -344.164C774.966 -331.906 882.269 -197.51 1045.32 -43.9818C1208.38 109.546 1365.44 224.067 1396.14 211.809C1426.83 199.551 1319.52 65.1542 1156.47 -88.3734Z" stroke="url(#paint10_linear_2_11348)" stroke-width="2" stroke-miterlimit="10"/>
<path d="M1161.67 -92.4904C976.431 -257.216 798.956 -378.948 765.27 -364.387C731.585 -349.826 854.446 -204.486 1039.69 -39.7612C1224.93 124.964 1402.41 246.696 1436.09 232.135C1469.78 217.575 1346.92 72.2346 1161.67 -92.4904Z" stroke="url(#paint11_linear_2_11348)" stroke-width="2" stroke-miterlimit="10"/>
<path d="M1168.69 -97.534C959.872 -272.833 760.407 -400.82 723.169 -383.4C685.93 -365.981 825.02 -209.752 1033.84 -34.4527C1242.65 140.846 1442.12 268.833 1479.35 251.414C1516.59 233.994 1377.5 77.7649 1168.69 -97.534Z" stroke="url(#paint12_linear_2_11348)" stroke-width="2" stroke-miterlimit="10"/>
<path d="M1175.96 -104.218C942.231 -289.185 719.161 -422.099 677.724 -401.09C636.287 -380.081 792.174 -213.105 1025.91 -28.138C1259.64 156.829 1482.71 289.743 1524.15 268.734C1565.59 247.725 1409.7 80.7487 1175.96 -104.218Z" stroke="url(#paint13_linear_2_11348)" stroke-width="2" stroke-miterlimit="10"/>
<path d="M1184.63 -112.067C925.19 -305.217 677.474 -441.196 631.339 -415.785C585.204 -390.374 758.121 -213.195 1017.56 -20.045C1277 173.105 1524.72 309.084 1570.85 283.673C1616.98 258.261 1444.07 81.0825 1184.63 -112.067Z" stroke="url(#paint14_linear_2_11348)" stroke-width="2" stroke-miterlimit="10"/>
<path d="M1194.39 -122.435C908.398 -322.143 634.64 -458.862 582.936 -427.805C531.233 -396.749 721.162 -209.677 1007.16 -9.96905C1293.15 189.739 1566.91 326.458 1618.61 295.402C1670.32 264.345 1480.39 77.2734 1194.39 -122.435Z" stroke="url(#paint15_linear_2_11348)" stroke-width="2" stroke-miterlimit="10"/>
<path d="M1205.62 -135.299C892.87 -339.364 592.43 -473.913 534.57 -435.823C476.71 -397.734 683.34 -201.429 996.091 2.63578C1308.84 206.7 1609.28 341.25 1667.14 303.16C1725 265.07 1518.37 68.7653 1205.62 -135.299Z" stroke="url(#paint16_linear_2_11348)" stroke-width="2" stroke-miterlimit="10"/>
<path d="M1217.89 -150.841C878.48 -356.729 550.987 -485.606 486.41 -438.696C421.833 -391.786 644.627 -186.852 984.034 19.0355C1323.44 224.923 1650.94 353.8 1715.51 306.89C1780.09 259.98 1557.3 55.047 1217.89 -150.841Z" stroke="url(#paint17_linear_2_11348)" stroke-width="2" stroke-miterlimit="10"/>
<path d="M1231.97 -171.96C866.541 -376.787 511.791 -495.527 439.613 -437.173C367.435 -378.819 605.161 -165.469 970.589 39.3579C1336.02 244.185 1690.77 362.925 1762.95 304.571C1835.12 246.218 1597.4 32.8673 1231.97 -171.96Z" stroke="url(#paint18_linear_2_11348)" stroke-width="2" stroke-miterlimit="10"/>
<path d="M1246.13 -198.142C855.834 -398.67 474.443 -502.074 394.27 -429.102C314.097 -356.129 565.5 -134.413 955.796 66.1145C1346.09 266.642 1727.48 370.047 1807.66 297.074C1887.83 224.102 1636.43 2.38561 1246.13 -198.142Z" stroke="url(#paint19_linear_2_11348)" stroke-width="2" stroke-miterlimit="10"/>
<path d="M1261.13 -232.404C847.967 -425.143 441.349 -506.885 352.922 -414.979C264.495 -323.073 527.745 -92.3222 940.907 100.417C1354.07 293.156 1760.69 374.898 1849.11 282.992C1937.54 191.086 1674.29 -39.6648 1261.13 -232.404Z" stroke="url(#paint20_linear_2_11348)" stroke-width="2" stroke-miterlimit="10"/>
<path d="M1275.47 -276.905C841.973 -458.37 412.498 -511.11 316.209 -394.704C219.919 -278.297 493.278 -36.8241 926.773 144.641C1360.27 326.106 1789.74 378.846 1886.03 262.44C1982.32 146.033 1708.96 -95.4398 1275.47 -276.905Z" stroke="url(#paint21_linear_2_11348)" stroke-width="2" stroke-miterlimit="10"/>
<path d="M1287.05 -334.013C835.92 -501.032 386.972 -516.502 284.294 -368.567C181.615 -220.633 464.088 34.6876 915.214 201.706C1366.34 368.725 1815.29 384.196 1917.97 236.261C2020.65 88.3265 1738.17 -166.994 1287.05 -334.013Z" stroke="url(#paint22_linear_2_11348)" stroke-width="2" stroke-miterlimit="10"/>
<path d="M1293.54 -407.171C828.185 -556.849 364.854 -525.439 258.655 -337.015C152.456 -148.591 443.605 125.494 908.955 275.172C1374.3 424.85 1837.64 393.44 1943.84 205.016C2050.03 16.592 1758.89 -257.494 1293.54 -407.171Z" stroke="url(#paint23_linear_2_11348)" stroke-width="2" stroke-miterlimit="10"/>
<path d="M1290.76 -500.025C814.491 -630.178 343.492 -541.29 238.752 -301.488C134.011 -61.6867 435.192 238.221 911.459 368.374C1387.73 498.527 1858.72 409.639 1963.47 169.838C2068.21 -69.964 1767.02 -369.872 1290.76 -500.025Z" stroke="url(#paint24_linear_2_11348)" stroke-width="2" stroke-miterlimit="10"/>
<path d="M1983.7 112.442C2062.58 -195.548 1731.39 -525.189 1243.95 -623.832C756.519 -722.475 297.427 -552.766 218.542 -244.776C139.658 63.2142 470.853 392.856 958.287 491.499C1445.72 590.142 1904.81 420.433 1983.7 112.442Z" stroke="url(#paint25_linear_2_11348)" stroke-width="2" stroke-miterlimit="10"/>
<defs>
<linearGradient id="paint0_linear_2_11348" x1="1073.4" y1="-62.8238" x2="1120.33" y2="-86.2764" gradientUnits="userSpaceOnUse">
<stop stop-color="#FF2B06" stop-opacity="0.8"/>
<stop offset="0.0309998" stop-color="#FF2B06" stop-opacity="0.4"/>
</linearGradient>
<linearGradient id="paint1_linear_2_11348" x1="1071.98" y1="-62.1135" x2="1119.96" y2="-89.0087" gradientUnits="userSpaceOnUse">
<stop stop-color="#FF2B06" stop-opacity="0.8"/>
<stop offset="0.0309998" stop-color="#FF2B06" stop-opacity="0.4"/>
</linearGradient>
<linearGradient id="paint2_linear_2_11348" x1="1070.86" y1="-60.8776" x2="1119.73" y2="-91.115" gradientUnits="userSpaceOnUse">
<stop stop-color="#FF2B06" stop-opacity="0.8"/>
<stop offset="0.0309998" stop-color="#FF2B06" stop-opacity="0.4"/>
</linearGradient>
<linearGradient id="paint3_linear_2_11348" x1="1069.09" y1="-59.2721" x2="1119.41" y2="-93.2323" gradientUnits="userSpaceOnUse">
<stop stop-color="#FF2B06" stop-opacity="0.8"/>
<stop offset="0.0309998" stop-color="#FF2B06" stop-opacity="0.4"/>
</linearGradient>
<linearGradient id="paint4_linear_2_11348" x1="1066.69" y1="-58.2244" x2="1118.95" y2="-96.3598" gradientUnits="userSpaceOnUse">
<stop stop-color="#FF2B06" stop-opacity="0.8"/>
<stop offset="0.0309998" stop-color="#FF2B06" stop-opacity="0.4"/>
</linearGradient>
<linearGradient id="paint5_linear_2_11348" x1="1064.37" y1="-57.0519" x2="1119.01" y2="-99.857" gradientUnits="userSpaceOnUse">
<stop stop-color="#FF2B06" stop-opacity="0.8"/>
<stop offset="0.0309998" stop-color="#FF2B06" stop-opacity="0.4"/>
</linearGradient>
<linearGradient id="paint6_linear_2_11348" x1="1061.7" y1="-54.6418" x2="1119.03" y2="-102.641" gradientUnits="userSpaceOnUse">
<stop stop-color="#FF2B06" stop-opacity="0.8"/>
<stop offset="0.0309998" stop-color="#FF2B06" stop-opacity="0.4"/>
</linearGradient>
<linearGradient id="paint7_linear_2_11348" x1="1058.9" y1="-53.0862" x2="1119.24" y2="-106.849" gradientUnits="userSpaceOnUse">
<stop stop-color="#FF2B06" stop-opacity="0.8"/>
<stop offset="0.0309998" stop-color="#FF2B06" stop-opacity="0.4"/>
</linearGradient>
<linearGradient id="paint8_linear_2_11348" x1="1054.67" y1="-50.6795" x2="1119.32" y2="-111.853" gradientUnits="userSpaceOnUse">
<stop stop-color="#FF2B06" stop-opacity="0.8"/>
<stop offset="0.0309998" stop-color="#FF2B06" stop-opacity="0.4"/>
</linearGradient>
<linearGradient id="paint9_linear_2_11348" x1="1050.85" y1="-47.4602" x2="1119.87" y2="-116.673" gradientUnits="userSpaceOnUse">
<stop stop-color="#FF2B06" stop-opacity="0.8"/>
<stop offset="0.0309998" stop-color="#FF2B06" stop-opacity="0.4"/>
</linearGradient>
<linearGradient id="paint10_linear_2_11348" x1="1045.33" y1="-43.9816" x2="1119.71" y2="-122.983" gradientUnits="userSpaceOnUse">
<stop stop-color="#FF2B06" stop-opacity="0.8"/>
<stop offset="0.0309998" stop-color="#FF2B06" stop-opacity="0.4"/>
</linearGradient>
<linearGradient id="paint11_linear_2_11348" x1="1039.69" y1="-39.7612" x2="1119.74" y2="-129.781" gradientUnits="userSpaceOnUse">
<stop stop-color="#FF2B06" stop-opacity="0.8"/>
<stop offset="0.0309998" stop-color="#FF2B06" stop-opacity="0.4"/>
</linearGradient>
<linearGradient id="paint12_linear_2_11348" x1="1033.84" y1="-34.4525" x2="1120.65" y2="-137.863" gradientUnits="userSpaceOnUse">
<stop stop-color="#FF2B06" stop-opacity="0.8"/>
<stop offset="0.0309998" stop-color="#FF2B06" stop-opacity="0.4"/>
</linearGradient>
<linearGradient id="paint13_linear_2_11348" x1="1025.91" y1="-28.138" x2="1120.71" y2="-147.94" gradientUnits="userSpaceOnUse">
<stop stop-color="#FF2B06" stop-opacity="0.8"/>
<stop offset="0.0309998" stop-color="#FF2B06" stop-opacity="0.4"/>
</linearGradient>
<linearGradient id="paint14_linear_2_11348" x1="1017.56" y1="-20.045" x2="1121.22" y2="-159.277" gradientUnits="userSpaceOnUse">
<stop stop-color="#FF2B06" stop-opacity="0.8"/>
<stop offset="0.0309998" stop-color="#FF2B06" stop-opacity="0.4"/>
</linearGradient>
<linearGradient id="paint15_linear_2_11348" x1="1007.16" y1="-9.96891" x2="1121.32" y2="-173.46" gradientUnits="userSpaceOnUse">
<stop stop-color="#FF2B06" stop-opacity="0.8"/>
<stop offset="0.0309998" stop-color="#FF2B06" stop-opacity="0.4"/>
</linearGradient>
<linearGradient id="paint16_linear_2_11348" x1="996.091" y1="2.63594" x2="1121.78" y2="-190.001" gradientUnits="userSpaceOnUse">
<stop stop-color="#FF2B06" stop-opacity="0.8"/>
<stop offset="0.0309998" stop-color="#FF2B06" stop-opacity="0.4"/>
</linearGradient>
<linearGradient id="paint17_linear_2_11348" x1="984.035" y1="19.0356" x2="1122.27" y2="-208.844" gradientUnits="userSpaceOnUse">
<stop stop-color="#FF2B06" stop-opacity="0.8"/>
<stop offset="0.0309998" stop-color="#FF2B06" stop-opacity="0.4"/>
</linearGradient>
<linearGradient id="paint18_linear_2_11348" x1="970.589" y1="39.358" x2="1123.21" y2="-232.923" gradientUnits="userSpaceOnUse">
<stop stop-color="#FF2B06" stop-opacity="0.8"/>
<stop offset="0.0309998" stop-color="#FF2B06" stop-opacity="0.4"/>
</linearGradient>
<linearGradient id="paint19_linear_2_11348" x1="955.796" y1="66.1147" x2="1123.85" y2="-260.969" gradientUnits="userSpaceOnUse">
<stop stop-color="#FF2B06" stop-opacity="0.8"/>
<stop offset="0.0309998" stop-color="#FF2B06" stop-opacity="0.4"/>
</linearGradient>
<linearGradient id="paint20_linear_2_11348" x1="940.907" y1="100.417" x2="1125.65" y2="-295.604" gradientUnits="userSpaceOnUse">
<stop stop-color="#FF2B06" stop-opacity="0.8"/>
<stop offset="0.0309998" stop-color="#FF2B06" stop-opacity="0.4"/>
</linearGradient>
<linearGradient id="paint21_linear_2_11348" x1="926.772" y1="144.641" x2="1128.92" y2="-338.252" gradientUnits="userSpaceOnUse">
<stop stop-color="#FF2B06" stop-opacity="0.8"/>
<stop offset="0.0309998" stop-color="#FF2B06" stop-opacity="0.4"/>
</linearGradient>
<linearGradient id="paint22_linear_2_11348" x1="915.214" y1="201.706" x2="1134.47" y2="-390.502" gradientUnits="userSpaceOnUse">
<stop stop-color="#FF2B06" stop-opacity="0.8"/>
<stop offset="0.0309998" stop-color="#FF2B06" stop-opacity="0.4"/>
</linearGradient>
<linearGradient id="paint23_linear_2_11348" x1="908.955" y1="275.172" x2="1143.91" y2="-455.298" gradientUnits="userSpaceOnUse">
<stop stop-color="#FF2B06" stop-opacity="0.8"/>
<stop offset="0.0309998" stop-color="#FF2B06" stop-opacity="0.4"/>
</linearGradient>
<linearGradient id="paint24_linear_2_11348" x1="911.459" y1="368.374" x2="1158.64" y2="-536.13" gradientUnits="userSpaceOnUse">
<stop stop-color="#FF2B06" stop-opacity="0.8"/>
<stop offset="0.0309998" stop-color="#FF2B06" stop-opacity="0.4"/>
</linearGradient>
<linearGradient id="paint25_linear_2_11348" x1="218.542" y1="-244.776" x2="1960.89" y2="201.487" gradientUnits="userSpaceOnUse">
<stop stop-color="#FF2B06" stop-opacity="0.8"/>
<stop offset="0.0309998" stop-color="#FF2B06" stop-opacity="0.4"/>
</linearGradient>
</defs>
</svg>