<svg width="1169" height="257" viewBox="0 0 1169 257" fill="none" xmlns="http://www.w3.org/2000/svg">
<g opacity="0.49">
<mask id="path-1-outside-1_706_360" maskUnits="userSpaceOnUse" x="-1" y="-1" width="1171" height="259" fill="black">
<rect fill="white" x="-1" y="-1" width="1171" height="259"/>
<path d="M111.046 113L133.166 2.39999H158.92L203.634 76.344L192.89 76.028L207.584 2.39999H238.236L216.116 113H190.362L145.806 39.056L156.392 39.372L141.698 113H111.046ZM226.649 113L297.591 2.39999H328.401L355.103 113H323.977L304.227 17.252H316.551L259.671 113H226.649ZM257.617 91.512L270.257 68.444H324.293L327.769 91.512H257.617ZM383.539 113L400.761 27.206H366.791L371.847 2.39999H470.913L465.857 27.206H432.045L414.823 113H383.539ZM462.028 113L484.148 2.39999H515.432L493.312 113H462.028ZM576.873 115.212C565.497 115.212 555.701 113.158 547.485 109.05C539.269 104.837 532.949 99.096 528.525 91.828C524.101 84.56 521.889 76.1333 521.889 66.548C521.889 56.8573 523.574 48.0093 526.945 40.004C530.316 31.8933 535.056 24.8887 541.165 18.99C547.274 12.986 554.542 8.35133 562.969 5.086C571.501 1.82066 580.823 0.187993 590.935 0.187993C602.311 0.187993 612.107 2.29466 620.323 6.508C628.539 10.616 634.859 16.304 639.283 23.572C643.707 30.84 645.919 39.2667 645.919 48.852C645.919 58.5427 644.234 67.4433 640.863 75.554C637.492 83.5593 632.752 90.564 626.643 96.568C620.534 102.467 613.213 107.049 604.681 110.314C596.254 113.579 586.985 115.212 576.873 115.212ZM579.559 89.3C585.036 89.3 589.882 88.2993 594.095 86.298C598.414 84.2967 602.048 81.5053 604.997 77.924C608.052 74.2373 610.369 70.0767 611.949 65.442C613.529 60.8073 614.319 55.9093 614.319 50.748C614.319 45.7973 613.266 41.4787 611.159 37.792C609.158 34.1053 606.208 31.2613 602.311 29.26C598.519 27.1533 593.832 26.1 588.249 26.1C582.877 26.1 578.032 27.1007 573.713 29.102C569.394 31.1033 565.708 33.9473 562.653 37.634C559.704 41.2153 557.439 45.3233 555.859 49.958C554.279 54.5927 553.489 59.4907 553.489 64.652C553.489 69.4973 554.49 73.816 556.491 77.608C558.598 81.2947 561.547 84.1913 565.339 86.298C569.236 88.2993 573.976 89.3 579.559 89.3ZM652.35 113L674.47 2.39999H700.224L744.938 76.344L734.194 76.028L748.888 2.39999H779.54L757.42 113H731.666L687.11 39.056L697.696 39.372L683.002 113H652.35ZM767.953 113L838.895 2.39999H869.705L896.407 113H865.281L845.531 17.252H857.855L800.975 113H767.953ZM798.921 91.512L811.561 68.444H865.597L869.073 91.512H798.921ZM907.014 113L929.134 2.39999H960.418L943.354 88.194H996.126L991.07 113H907.014ZM56.2779 256.212C45.0073 256.212 35.1586 254.158 26.7319 250.05C18.4106 245.942 11.9853 240.254 7.45592 232.986C2.92659 225.613 0.661922 217.133 0.661922 207.548C0.661922 197.963 2.34725 189.115 5.71792 181.004C9.08859 172.893 13.8286 165.889 19.9379 159.99C26.0473 153.986 33.3153 149.351 41.7419 146.086C50.2739 142.821 59.7013 141.188 70.0239 141.188C80.2413 141.188 89.2999 142.979 97.1999 146.56C105.1 150.141 110.999 155.303 114.896 162.044L92.3019 180.056C89.7739 175.843 86.4559 172.63 82.3479 170.418C78.3453 168.206 73.5526 167.1 67.9699 167.1C62.5979 167.1 57.6999 168.048 53.2759 169.944C48.9573 171.84 45.2179 174.526 42.0579 178.002C38.8979 181.478 36.4753 185.586 34.7899 190.326C33.1046 194.961 32.2619 200.017 32.2619 205.494C32.2619 210.445 33.3153 214.816 35.4219 218.608C37.6339 222.295 40.7413 225.191 44.7439 227.298C48.8519 229.299 53.6973 230.3 59.2799 230.3C64.2306 230.3 68.9706 229.299 73.4999 227.298C78.1346 225.297 82.4006 222.031 86.2979 217.502L104.784 235.672C98.5693 243.151 91.4066 248.47 83.2959 251.63C75.1853 254.685 66.1793 256.212 56.2779 256.212ZM171.56 256.212C160.184 256.212 150.388 254.158 142.172 250.05C133.956 245.837 127.636 240.096 123.212 232.828C118.788 225.56 116.576 217.133 116.576 207.548C116.576 197.857 118.261 189.009 121.632 181.004C125.003 172.893 129.743 165.889 135.852 159.99C141.961 153.986 149.229 149.351 157.656 146.086C166.188 142.821 175.51 141.188 185.622 141.188C196.998 141.188 206.794 143.295 215.01 147.508C223.226 151.616 229.546 157.304 233.97 164.572C238.394 171.84 240.606 180.267 240.606 189.852C240.606 199.543 238.921 208.443 235.55 216.554C232.179 224.559 227.439 231.564 221.33 237.568C215.221 243.467 207.9 248.049 199.368 251.314C190.941 254.579 181.672 256.212 171.56 256.212ZM174.246 230.3C179.723 230.3 184.569 229.299 188.782 227.298C193.101 225.297 196.735 222.505 199.684 218.924C202.739 215.237 205.056 211.077 206.636 206.442C208.216 201.807 209.006 196.909 209.006 191.748C209.006 186.797 207.953 182.479 205.846 178.792C203.845 175.105 200.895 172.261 196.998 170.26C193.206 168.153 188.519 167.1 182.936 167.1C177.564 167.1 172.719 168.101 168.4 170.102C164.081 172.103 160.395 174.947 157.34 178.634C154.391 182.215 152.126 186.323 150.546 190.958C148.966 195.593 148.176 200.491 148.176 205.652C148.176 210.497 149.177 214.816 151.178 218.608C153.285 222.295 156.234 225.191 160.026 227.298C163.923 229.299 168.663 230.3 174.246 230.3ZM247.037 254L269.157 143.4H294.911L339.625 217.344L328.881 217.028L343.575 143.4H374.227L352.107 254H326.353L281.797 180.056L292.383 180.372L277.689 254H247.037ZM417.308 191.906H468.342L463.444 216.08H412.568L417.308 191.906ZM407.196 254H375.912L398.032 143.4H484.616L479.718 167.574H424.418L407.196 254ZM521.051 186.218H572.401L567.819 209.602H516.469L521.051 186.218ZM514.573 229.826H572.559L567.503 254H478.865L500.985 143.4H587.569L582.671 167.574H526.897L514.573 229.826ZM586.601 254L608.721 143.4H655.963C670.183 143.4 681.138 146.507 688.827 152.722C696.622 158.937 700.519 167.574 700.519 178.634C700.519 187.903 698.255 196.014 693.725 202.966C689.301 209.813 682.981 215.132 674.765 218.924C666.549 222.716 656.859 224.612 645.693 224.612H609.827L626.417 211.182L617.885 254H586.601ZM655.963 254L633.369 213.71H665.759L688.669 254H655.963ZM625.627 214.816L614.725 200.438H647.115C654.067 200.438 659.439 198.805 663.231 195.54C667.023 192.275 668.919 187.64 668.919 181.636C668.919 177.001 667.392 173.578 664.337 171.366C661.283 169.154 657.017 168.048 651.539 168.048H621.361L638.109 153.196L625.627 214.816ZM747.324 186.218H798.674L794.092 209.602H742.742L747.324 186.218ZM740.846 229.826H798.832L793.776 254H705.138L727.258 143.4H813.842L808.944 167.574H753.17L740.846 229.826ZM812.874 254L834.994 143.4H860.748L905.463 217.344L894.719 217.028L909.413 143.4H940.065L917.945 254H892.19L847.634 180.056L858.22 180.372L843.526 254H812.874ZM1002.11 256.212C990.835 256.212 980.986 254.158 972.559 250.05C964.238 245.942 957.813 240.254 953.283 232.986C948.754 225.613 946.489 217.133 946.489 207.548C946.489 197.963 948.175 189.115 951.545 181.004C954.916 172.893 959.656 165.889 965.765 159.99C971.875 153.986 979.143 149.351 987.569 146.086C996.101 142.821 1005.53 141.188 1015.85 141.188C1026.07 141.188 1035.13 142.979 1043.03 146.56C1050.93 150.141 1056.83 155.303 1060.72 162.044L1038.13 180.056C1035.6 175.843 1032.28 172.63 1028.18 170.418C1024.17 168.206 1019.38 167.1 1013.8 167.1C1008.43 167.1 1003.53 168.048 999.103 169.944C994.785 171.84 991.045 174.526 987.885 178.002C984.725 181.478 982.303 185.586 980.617 190.326C978.932 194.961 978.089 200.017 978.089 205.494C978.089 210.445 979.143 214.816 981.249 218.608C983.461 222.295 986.569 225.191 990.571 227.298C994.679 229.299 999.525 230.3 1005.11 230.3C1010.06 230.3 1014.8 229.299 1019.33 227.298C1023.96 225.297 1028.23 222.031 1032.13 217.502L1050.61 235.672C1044.4 243.151 1037.23 248.47 1029.12 251.63C1021.01 254.685 1012.01 256.212 1002.11 256.212ZM1102.16 186.218H1153.51L1148.93 209.602H1097.58L1102.16 186.218ZM1095.69 229.826H1153.67L1148.62 254H1059.98L1082.1 143.4H1168.68L1163.78 167.574H1108.01L1095.69 229.826Z"/>
</mask>
<path d="M111.046 113L110.065 112.804L109.826 114H111.046V113ZM133.166 2.39999V1.39999H132.346L132.185 2.20388L133.166 2.39999ZM158.92 2.39999L159.776 1.88254L159.484 1.39999H158.92V2.39999ZM203.634 76.344L203.604 77.3436L205.44 77.3975L204.49 75.8265L203.634 76.344ZM192.89 76.028L191.909 75.8323L191.678 76.9928L192.86 77.0276L192.89 76.028ZM207.584 2.39999V1.39999H206.764L206.603 2.20428L207.584 2.39999ZM238.236 2.39999L239.216 2.59611L239.456 1.39999H238.236V2.39999ZM216.116 113V114H216.936L217.096 113.196L216.116 113ZM190.362 113L189.505 113.516L189.797 114H190.362V113ZM145.806 39.056L145.836 38.0564L144.003 38.0017L144.949 39.5721L145.806 39.056ZM156.392 39.372L157.373 39.5677L157.604 38.4077L156.422 38.3724L156.392 39.372ZM141.698 113V114H142.518L142.679 113.196L141.698 113ZM112.026 113.196L134.146 2.59611L132.185 2.20388L110.065 112.804L112.026 113.196ZM133.166 3.39999H158.92V1.39999H133.166V3.39999ZM158.064 2.91744L202.778 76.8614L204.49 75.8265L159.776 1.88254L158.064 2.91744ZM203.663 75.3444L192.919 75.0284L192.86 77.0276L203.604 77.3436L203.663 75.3444ZM193.871 76.2237L208.565 2.5957L206.603 2.20428L191.909 75.8323L193.871 76.2237ZM207.584 3.39999H238.236V1.39999H207.584V3.39999ZM237.255 2.20388L215.135 112.804L217.096 113.196L239.216 2.59611L237.255 2.20388ZM216.116 112H190.362V114H216.116V112ZM191.218 112.484L146.662 38.5399L144.949 39.5721L189.505 113.516L191.218 112.484ZM145.776 40.0556L156.362 40.3716L156.422 38.3724L145.836 38.0564L145.776 40.0556ZM155.411 39.1763L140.717 112.804L142.679 113.196L157.373 39.5677L155.411 39.1763ZM141.698 112H111.046V114H141.698V112ZM226.649 113L225.807 112.46L224.819 114H226.649V113ZM297.591 2.39999V1.39999H297.044L296.749 1.86009L297.591 2.39999ZM328.401 2.39999L329.373 2.16531L329.188 1.39999H328.401V2.39999ZM355.103 113V114H356.373L356.075 112.765L355.103 113ZM323.977 113L322.997 113.202L323.162 114H323.977V113ZM304.227 17.252V16.252H302.999L303.247 17.454L304.227 17.252ZM316.551 17.252L317.411 17.7627L318.308 16.252H316.551V17.252ZM259.671 113V114H260.24L260.531 113.511L259.671 113ZM257.617 91.512L256.74 91.0315L255.929 92.512H257.617V91.512ZM270.257 68.444V67.444H269.664L269.38 67.9635L270.257 68.444ZM324.293 68.444L325.282 68.295L325.153 67.444H324.293V68.444ZM327.769 91.512V92.512H328.931L328.758 91.363L327.769 91.512ZM227.491 113.54L298.433 2.9399L296.749 1.86009L225.807 112.46L227.491 113.54ZM297.591 3.39999H328.401V1.39999H297.591V3.39999ZM327.429 2.63468L354.131 113.235L356.075 112.765L329.373 2.16531L327.429 2.63468ZM355.103 112H323.977V114H355.103V112ZM324.956 112.798L305.206 17.05L303.247 17.454L322.997 113.202L324.956 112.798ZM304.227 18.252H316.551V16.252H304.227V18.252ZM315.691 16.7413L258.811 112.489L260.531 113.511L317.411 17.7627L315.691 16.7413ZM259.671 112H226.649V114H259.671V112ZM258.494 91.9925L271.134 68.9245L269.38 67.9635L256.74 91.0315L258.494 91.9925ZM270.257 69.444H324.293V67.444H270.257V69.444ZM323.304 68.593L326.78 91.661L328.758 91.363L325.282 68.295L323.304 68.593ZM327.769 90.512H257.617V92.512H327.769V90.512ZM383.539 113L382.559 112.803L382.318 114H383.539V113ZM400.761 27.206L401.742 27.4028L401.982 26.206H400.761V27.206ZM366.791 27.206L365.811 27.0063L365.567 28.206H366.791V27.206ZM371.847 2.39999V1.39999H371.03L370.867 2.20028L371.847 2.39999ZM470.913 2.39999L471.893 2.59971L472.137 1.39999H470.913V2.39999ZM465.857 27.206V28.206H466.674L466.837 27.4057L465.857 27.206ZM432.045 27.206V26.206H431.226L431.065 27.0092L432.045 27.206ZM414.823 113V114H415.642L415.804 113.197L414.823 113ZM384.52 113.197L401.742 27.4028L399.781 27.0092L382.559 112.803L384.52 113.197ZM400.761 26.206H366.791V28.206H400.761V26.206ZM367.771 27.4057L372.827 2.59971L370.867 2.20028L365.811 27.0063L367.771 27.4057ZM371.847 3.39999H470.913V1.39999H371.847V3.39999ZM469.933 2.20028L464.877 27.0063L466.837 27.4057L471.893 2.59971L469.933 2.20028ZM465.857 26.206H432.045V28.206H465.857V26.206ZM431.065 27.0092L413.843 112.803L415.804 113.197L433.026 27.4028L431.065 27.0092ZM414.823 112H383.539V114H414.823V112ZM462.028 113L461.047 112.804L460.808 114H462.028V113ZM484.148 2.39999V1.39999H483.328L483.167 2.20388L484.148 2.39999ZM515.432 2.39999L516.413 2.59611L516.652 1.39999H515.432V2.39999ZM493.312 113V114H494.132L494.293 113.196L493.312 113ZM463.009 113.196L485.129 2.59611L483.167 2.20388L461.047 112.804L463.009 113.196ZM484.148 3.39999H515.432V1.39999H484.148V3.39999ZM514.451 2.20388L492.331 112.804L494.293 113.196L516.413 2.59611L514.451 2.20388ZM493.312 112H462.028V114H493.312V112ZM547.485 109.05L547.029 109.94L547.038 109.944L547.485 109.05ZM528.525 91.828L527.671 92.3479L527.671 92.3479L528.525 91.828ZM526.945 40.004L527.867 40.3921L527.869 40.3878L526.945 40.004ZM541.165 18.99L541.86 19.7094L541.866 19.7032L541.165 18.99ZM562.969 5.086L562.612 4.15205L562.608 4.15355L562.969 5.086ZM620.323 6.508L619.867 7.39786L619.876 7.40242L620.323 6.508ZM639.283 23.572L640.137 23.052L640.137 23.052L639.283 23.572ZM640.863 75.554L641.785 75.9421L641.787 75.9378L640.863 75.554ZM626.643 96.568L627.338 97.2874L627.344 97.2812L626.643 96.568ZM604.681 110.314L604.324 109.38L604.32 109.382L604.681 110.314ZM594.095 86.298L593.675 85.3906L593.666 85.3947L594.095 86.298ZM604.997 77.924L604.227 77.286L604.225 77.2883L604.997 77.924ZM611.949 65.442L612.896 65.7647L612.896 65.7647L611.949 65.442ZM611.159 37.792L610.28 38.2691L610.285 38.2787L610.291 38.2881L611.159 37.792ZM602.311 29.26L601.825 30.1342L601.84 30.1421L601.854 30.1496L602.311 29.26ZM562.653 37.634L561.883 36.996L561.881 36.9983L562.653 37.634ZM555.859 49.958L554.913 49.6353L554.913 49.6353L555.859 49.958ZM556.491 77.608L555.607 78.0748L555.615 78.0896L555.623 78.1041L556.491 77.608ZM565.339 86.298L564.853 87.1722L564.868 87.1801L564.882 87.1876L565.339 86.298ZM576.873 114.212C565.616 114.212 555.98 112.18 547.932 108.156L547.038 109.944C555.422 114.136 565.378 116.212 576.873 116.212V114.212ZM547.941 108.16C539.875 104.024 533.699 98.405 529.379 91.3081L527.671 92.3479C532.199 99.787 538.663 105.65 547.029 109.94L547.941 108.16ZM529.379 91.3081C525.062 84.2159 522.889 75.9737 522.889 66.548H520.889C520.889 76.2929 523.14 84.9041 527.671 92.3479L529.379 91.3081ZM522.889 66.548C522.889 56.9752 524.553 48.2611 527.867 40.3921L526.023 39.6159C522.595 47.7576 520.889 56.7395 520.889 66.548H522.889ZM527.869 40.3878C531.189 32.399 535.852 25.5097 541.86 19.7094L540.471 18.2706C534.259 24.2676 529.443 31.3876 526.022 39.6202L527.869 40.3878ZM541.866 19.7032C547.873 13.7999 555.024 9.23734 563.33 6.01844L562.608 4.15355C554.061 7.46533 546.676 12.1721 540.464 18.2768L541.866 19.7032ZM563.327 6.01993C571.733 2.8027 580.932 1.18799 590.935 1.18799V-0.812007C580.714 -0.812007 571.269 0.838622 562.612 4.15206L563.327 6.01993ZM590.935 1.18799C602.189 1.18799 611.821 3.27178 619.867 7.39781L620.779 5.61818C612.393 1.31754 602.434 -0.812007 590.935 -0.812007V1.18799ZM619.876 7.40242C627.938 11.4333 634.11 16.9973 638.429 24.0919L640.137 23.052C635.608 15.6106 629.141 9.79869 620.77 5.61357L619.876 7.40242ZM638.429 24.0919C642.746 31.1841 644.919 39.4263 644.919 48.852H646.919C646.919 39.1071 644.668 30.4959 640.137 23.052L638.429 24.0919ZM644.919 48.852C644.919 58.4246 643.255 67.1932 639.94 75.1702L641.787 75.9378C645.213 67.6935 646.919 58.6607 646.919 48.852H644.919ZM639.941 75.1659C636.621 83.0511 631.956 89.9448 625.942 95.8548L627.344 97.2812C633.549 91.1832 638.363 84.0676 641.785 75.9421L639.941 75.1659ZM625.949 95.8486C619.943 101.647 612.74 106.159 604.324 109.38L605.039 111.248C613.687 107.938 621.124 103.286 627.338 97.2874L625.949 95.8486ZM604.32 109.382C596.021 112.597 586.876 114.212 576.873 114.212V116.212C587.094 116.212 596.488 114.561 605.042 111.246L604.32 109.382ZM579.559 90.3C585.159 90.3 590.155 89.2765 594.524 87.2013L593.666 85.3947C589.608 87.3222 584.914 88.3 579.559 88.3V90.3ZM594.516 87.2053C598.967 85.1426 602.722 82.2598 605.769 78.5597L604.225 77.2883C601.374 80.7508 597.861 83.4507 593.675 85.3907L594.516 87.2053ZM605.767 78.562C608.901 74.7797 611.277 70.5116 612.896 65.7647L611.003 65.1193C609.461 69.6417 607.202 73.695 604.227 77.286L605.767 78.562ZM612.896 65.7647C614.513 61.0206 615.319 56.0131 615.319 50.748H613.319C613.319 55.8055 612.545 60.5941 611.003 65.1193L612.896 65.7647ZM615.319 50.748C615.319 45.6524 614.234 41.1571 612.027 37.2959L610.291 38.2881C612.298 41.8003 613.319 45.9422 613.319 50.748H615.319ZM612.038 37.3149C609.936 33.4433 606.836 30.4593 602.768 28.3704L601.854 30.1496C605.581 32.0633 608.379 34.7674 610.28 38.2691L612.038 37.3149ZM602.797 28.3858C598.82 26.1763 593.954 25.1 588.249 25.1V27.1C593.709 27.1 598.219 28.1304 601.825 30.1342L602.797 28.3858ZM588.249 25.1C582.751 25.1 577.759 26.1249 573.293 28.1947L574.134 30.0093C578.304 28.0764 583.004 27.1 588.249 27.1V25.1ZM573.293 28.1947C568.838 30.259 565.032 33.1953 561.883 36.996L563.423 38.272C566.383 34.6993 569.951 31.9476 574.134 30.0093L573.293 28.1947ZM561.881 36.9983C558.851 40.6777 556.529 44.893 554.913 49.6353L556.806 50.2807C558.349 45.7536 560.556 41.753 563.425 38.2697L561.881 36.9983ZM554.913 49.6353C553.295 54.3794 552.489 59.3869 552.489 64.652H554.489C554.489 59.5945 555.263 54.8059 556.806 50.2807L554.913 49.6353ZM552.489 64.652C552.489 69.6386 553.52 74.1211 555.607 78.0748L557.375 77.1412C555.459 73.5109 554.489 69.3561 554.489 64.652H552.489ZM555.623 78.1041C557.822 81.953 560.905 84.9788 564.853 87.1722L565.825 85.4238C562.189 83.4039 559.373 80.6364 557.359 77.1119L555.623 78.1041ZM564.882 87.1876C568.954 89.2786 573.86 90.3 579.559 90.3V88.3C574.093 88.3 569.518 87.32 565.796 85.4084L564.882 87.1876ZM652.35 113L651.37 112.804L651.13 114H652.35V113ZM674.47 2.39999V1.39999H673.65L673.49 2.20388L674.47 2.39999ZM700.224 2.39999L701.08 1.88254L700.788 1.39999H700.224V2.39999ZM744.938 76.344L744.909 77.3436L746.744 77.3975L745.794 75.8265L744.938 76.344ZM734.194 76.028L733.214 75.8323L732.982 76.9928L734.165 77.0276L734.194 76.028ZM748.888 2.39999V1.39999H748.068L747.908 2.20428L748.888 2.39999ZM779.54 2.39999L780.521 2.59611L780.76 1.39999H779.54V2.39999ZM757.42 113V114H758.24L758.401 113.196L757.42 113ZM731.666 113L730.81 113.516L731.101 114H731.666V113ZM687.11 39.056L687.14 38.0564L685.307 38.0017L686.254 39.5721L687.11 39.056ZM697.696 39.372L698.677 39.5677L698.908 38.4077L697.726 38.3724L697.696 39.372ZM683.002 113V114H683.822L683.983 113.196L683.002 113ZM653.331 113.196L675.451 2.59611L673.49 2.20388L651.37 112.804L653.331 113.196ZM674.47 3.39999H700.224V1.39999H674.47V3.39999ZM699.368 2.91744L744.083 76.8614L745.794 75.8265L701.08 1.88254L699.368 2.91744ZM744.968 75.3444L734.224 75.0284L734.165 77.0276L744.909 77.3436L744.968 75.3444ZM735.175 76.2237L749.869 2.5957L747.908 2.20428L733.214 75.8323L735.175 76.2237ZM748.888 3.39999H779.54V1.39999H748.888V3.39999ZM778.56 2.20388L756.44 112.804L758.401 113.196L780.521 2.59611L778.56 2.20388ZM757.42 112H731.666V114H757.42V112ZM732.523 112.484L687.967 38.5399L686.254 39.5721L730.81 113.516L732.523 112.484ZM687.08 40.0556L697.666 40.3716L697.726 38.3724L687.14 38.0564L687.08 40.0556ZM696.716 39.1763L682.022 112.804L683.983 113.196L698.677 39.5677L696.716 39.1763ZM683.002 112H652.35V114H683.002V112ZM767.953 113L767.111 112.46L766.124 114H767.953V113ZM838.895 2.39999V1.39999H838.348L838.053 1.86009L838.895 2.39999ZM869.705 2.39999L870.677 2.16531L870.492 1.39999H869.705V2.39999ZM896.407 113V114H897.677L897.379 112.765L896.407 113ZM865.281 113L864.302 113.202L864.466 114H865.281V113ZM845.531 17.252V16.252H844.304L844.552 17.454L845.531 17.252ZM857.855 17.252L858.715 17.7627L859.612 16.252H857.855V17.252ZM800.975 113V114H801.544L801.835 113.511L800.975 113ZM798.921 91.512L798.044 91.0315L797.233 92.512H798.921V91.512ZM811.561 68.444V67.444H810.969L810.684 67.9635L811.561 68.444ZM865.597 68.444L866.586 68.295L866.458 67.444H865.597V68.444ZM869.073 91.512V92.512H870.235L870.062 91.363L869.073 91.512ZM768.795 113.54L839.737 2.9399L838.053 1.86009L767.111 112.46L768.795 113.54ZM838.895 3.39999H869.705V1.39999H838.895V3.39999ZM868.733 2.63468L895.435 113.235L897.379 112.765L870.677 2.16531L868.733 2.63468ZM896.407 112H865.281V114H896.407V112ZM866.26 112.798L846.51 17.05L844.552 17.454L864.302 113.202L866.26 112.798ZM845.531 18.252H857.855V16.252H845.531V18.252ZM856.995 16.7413L800.115 112.489L801.835 113.511L858.715 17.7627L856.995 16.7413ZM800.975 112H767.953V114H800.975V112ZM799.798 91.9925L812.438 68.9245L810.684 67.9635L798.044 91.0315L799.798 91.9925ZM811.561 69.444H865.597V67.444H811.561V69.444ZM864.608 68.593L868.084 91.661L870.062 91.363L866.586 68.295L864.608 68.593ZM869.073 90.512H798.921V92.512H869.073V90.512ZM907.014 113L906.034 112.804L905.794 114H907.014V113ZM929.134 2.39999V1.39999H928.314L928.154 2.20388L929.134 2.39999ZM960.418 2.39999L961.399 2.59507L961.637 1.39999H960.418V2.39999ZM943.354 88.194L942.373 87.9989L942.136 89.194H943.354V88.194ZM996.126 88.194L997.106 88.3937L997.35 87.194H996.126V88.194ZM991.07 113V114H991.887L992.05 113.2L991.07 113ZM907.995 113.196L930.115 2.59611L928.154 2.20388L906.034 112.804L907.995 113.196ZM929.134 3.39999H960.418V1.39999H929.134V3.39999ZM959.437 2.20492L942.373 87.9989L944.335 88.3891L961.399 2.59507L959.437 2.20492ZM943.354 89.194H996.126V87.194H943.354V89.194ZM995.146 87.9943L990.09 112.8L992.05 113.2L997.106 88.3937L995.146 87.9943ZM991.07 112H907.014V114H991.07V112ZM26.7319 250.05L26.2892 250.947L26.2937 250.949L26.7319 250.05ZM7.45592 232.986L6.60383 233.509L6.60723 233.515L7.45592 232.986ZM5.71792 181.004L6.64135 181.388L6.64135 181.388L5.71792 181.004ZM19.9379 159.99L20.6325 160.709L20.6389 160.703L19.9379 159.99ZM41.7419 146.086L41.3845 145.152L41.3806 145.154L41.7419 146.086ZM97.1999 146.56L96.787 147.471L96.787 147.471L97.1999 146.56ZM114.896 162.044L115.519 162.826L116.193 162.289L115.762 161.543L114.896 162.044ZM92.3019 180.056L91.4444 180.57L92.0321 181.55L92.9253 180.838L92.3019 180.056ZM82.3479 170.418L81.8642 171.293L81.8738 171.298L82.3479 170.418ZM53.2759 169.944L52.882 169.025L52.8739 169.028L53.2759 169.944ZM42.0579 178.002L41.318 177.329L41.318 177.329L42.0579 178.002ZM34.7899 190.326L35.7297 190.668L35.7321 190.661L34.7899 190.326ZM35.4219 218.608L34.5478 219.094L34.5559 219.108L34.5644 219.122L35.4219 218.608ZM44.7439 227.298L44.2782 228.183L44.292 228.19L44.306 228.197L44.7439 227.298ZM73.4999 227.298L73.1035 226.38L73.0958 226.383L73.4999 227.298ZM86.2979 217.502L86.9989 216.789L86.2369 216.04L85.5399 216.85L86.2979 217.502ZM104.784 235.672L105.553 236.311L106.141 235.604L105.485 234.959L104.784 235.672ZM83.2959 251.63L83.6484 252.566L83.659 252.562L83.2959 251.63ZM56.2779 255.212C45.1288 255.212 35.4354 253.18 27.1701 249.151L26.2937 250.949C34.8817 255.136 44.8857 257.212 56.2779 257.212V255.212ZM27.1746 249.153C19.0057 245.121 12.7273 239.554 8.30461 232.457L6.60723 233.515C11.2432 240.954 17.8155 246.763 26.2893 250.947L27.1746 249.153ZM8.308 232.463C3.88559 225.263 1.66192 216.969 1.66192 207.548H-0.338078C-0.338078 217.298 1.96759 225.962 6.60385 233.509L8.308 232.463ZM1.66192 207.548C1.66192 198.082 3.32568 189.366 6.64135 181.388L4.79449 180.62C1.36883 188.863 -0.338078 197.843 -0.338078 207.548H1.66192ZM6.64135 181.388C9.96135 173.399 14.625 166.51 20.6325 160.709L19.2433 159.271C13.0322 165.268 8.21583 172.388 4.79449 180.62L6.64135 181.388ZM20.6389 160.703C26.6458 154.8 33.7964 150.237 42.1032 147.018L41.3806 145.154C32.8341 148.465 25.4487 153.172 19.237 159.277L20.6389 160.703ZM42.0994 147.02C50.5034 143.804 59.8077 142.188 70.0239 142.188V140.188C59.5948 140.188 50.0444 141.838 41.3845 145.152L42.0994 147.02ZM70.0239 142.188C80.1239 142.188 89.0378 143.958 96.787 147.471L97.6128 145.649C89.5621 142 80.3586 140.188 70.0239 140.188V142.188ZM96.787 147.471C104.52 150.976 110.249 156.004 114.03 162.545L115.762 161.543C111.748 154.601 105.68 149.306 97.6128 145.649L96.787 147.471ZM114.273 161.262L91.6786 179.274L92.9253 180.838L115.519 162.826L114.273 161.262ZM93.1594 179.542C90.544 175.182 87.097 171.839 82.822 169.538L81.8738 171.298C85.8149 173.421 89.0039 176.503 91.4444 180.57L93.1594 179.542ZM82.8316 169.543C78.6515 167.233 73.6847 166.1 67.9699 166.1V168.1C73.4205 168.1 78.039 169.179 81.8642 171.293L82.8316 169.543ZM67.9699 166.1C62.4782 166.1 57.4442 167.07 52.882 169.025L53.6698 170.863C57.9557 169.026 62.7176 168.1 67.9699 168.1V166.1ZM52.8739 169.028C48.4274 170.981 44.5727 173.749 41.318 177.329L42.7979 178.675C45.8631 175.303 49.4872 172.699 53.6779 170.86L52.8739 169.028ZM41.318 177.329C38.0627 180.91 35.5742 185.135 33.8477 189.991L35.7321 190.661C37.3763 186.037 39.7332 182.046 42.7979 178.675L41.318 177.329ZM33.8501 189.984C32.1208 194.74 31.2619 199.913 31.2619 205.494H33.2619C33.2619 200.12 34.0884 195.181 35.7297 190.668L33.8501 189.984ZM31.2619 205.494C31.2619 210.59 32.3475 215.133 34.5478 219.094L36.2961 218.122C34.283 214.499 33.2619 210.299 33.2619 205.494H31.2619ZM34.5644 219.122C36.8756 222.974 40.1223 225.996 44.2782 228.183L45.2097 226.413C41.3602 224.387 38.3922 221.615 36.2794 218.094L34.5644 219.122ZM44.306 228.197C48.5773 230.278 53.5785 231.3 59.2799 231.3V229.3C53.816 229.3 49.1266 228.321 45.1819 226.399L44.306 228.197ZM59.2799 231.3C64.3698 231.3 69.2475 230.27 73.9041 228.213L73.0958 226.383C68.6937 228.328 64.0914 229.3 59.2799 229.3V231.3ZM73.8964 228.216C78.6934 226.145 83.0778 222.778 87.0559 218.154L85.5399 216.85C81.7234 221.285 77.5758 224.449 73.1035 226.38L73.8964 228.216ZM85.5969 218.215L104.083 236.385L105.485 234.959L86.9989 216.789L85.5969 218.215ZM104.015 235.033C97.8956 242.397 90.8677 247.607 82.9329 250.698L83.659 252.562C91.9454 249.333 99.2429 243.905 105.553 236.311L104.015 235.033ZM82.9435 250.694C74.9603 253.701 66.0758 255.212 56.2779 255.212V257.212C66.2827 257.212 75.4102 255.669 83.6484 252.566L82.9435 250.694ZM142.172 250.05L141.716 250.94L141.725 250.944L142.172 250.05ZM123.212 232.828L122.358 233.348L122.358 233.348L123.212 232.828ZM121.632 181.004L122.554 181.392L122.555 181.388L121.632 181.004ZM135.852 159.99L136.547 160.709L136.553 160.703L135.852 159.99ZM157.656 146.086L157.298 145.152L157.295 145.154L157.656 146.086ZM215.01 147.508L214.554 148.398L214.563 148.402L215.01 147.508ZM233.97 164.572L234.824 164.052L234.824 164.052L233.97 164.572ZM235.55 216.554L236.472 216.942L236.473 216.938L235.55 216.554ZM221.33 237.568L222.025 238.287L222.031 238.281L221.33 237.568ZM199.368 251.314L199.01 250.38L199.007 250.382L199.368 251.314ZM188.782 227.298L188.361 226.391L188.353 226.395L188.782 227.298ZM199.684 218.924L198.914 218.286L198.912 218.288L199.684 218.924ZM206.636 206.442L207.582 206.765L207.582 206.765L206.636 206.442ZM205.846 178.792L204.967 179.269L204.972 179.279L204.978 179.288L205.846 178.792ZM196.998 170.26L196.512 171.134L196.527 171.142L196.541 171.15L196.998 170.26ZM157.34 178.634L156.57 177.996L156.568 177.998L157.34 178.634ZM150.546 190.958L149.599 190.635L149.599 190.635L150.546 190.958ZM151.178 218.608L150.294 219.075L150.301 219.09L150.31 219.104L151.178 218.608ZM160.026 227.298L159.54 228.172L159.555 228.18L159.569 228.188L160.026 227.298ZM171.56 255.212C160.303 255.212 150.667 253.18 142.619 249.156L141.725 250.944C150.109 255.136 160.065 257.212 171.56 257.212V255.212ZM142.628 249.16C134.562 245.024 128.386 239.405 124.066 232.308L122.358 233.348C126.886 240.787 133.35 246.65 141.716 250.94L142.628 249.16ZM124.066 232.308C119.749 225.216 117.576 216.974 117.576 207.548H115.576C115.576 217.293 117.827 225.904 122.358 233.348L124.066 232.308ZM117.576 207.548C117.576 197.975 119.24 189.261 122.554 181.392L120.71 180.616C117.282 188.758 115.576 197.739 115.576 207.548H117.576ZM122.555 181.388C125.875 173.399 130.539 166.51 136.547 160.709L135.157 159.271C128.946 165.268 124.13 172.388 120.708 180.62L122.555 181.388ZM136.553 160.703C142.56 154.8 149.71 150.237 158.017 147.018L157.295 145.154C148.748 148.465 141.363 153.172 135.151 159.277L136.553 160.703ZM158.013 147.02C166.42 143.803 175.619 142.188 185.622 142.188V140.188C175.401 140.188 165.956 141.839 157.298 145.152L158.013 147.02ZM185.622 142.188C196.875 142.188 206.508 144.272 214.554 148.398L215.466 146.618C207.08 142.318 197.12 140.188 185.622 140.188V142.188ZM214.563 148.402C222.624 152.433 228.797 157.997 233.116 165.092L234.824 164.052C230.295 156.611 223.827 150.799 215.457 146.614L214.563 148.402ZM233.116 165.092C237.433 172.184 239.606 180.426 239.606 189.852H241.606C241.606 180.107 239.355 171.496 234.824 164.052L233.116 165.092ZM239.606 189.852C239.606 199.425 237.942 208.193 234.626 216.17L236.473 216.938C239.9 208.693 241.606 199.661 241.606 189.852H239.606ZM234.628 216.166C231.308 224.051 226.643 230.945 220.629 236.855L222.031 238.281C228.236 232.183 233.05 225.068 236.472 216.942L234.628 216.166ZM220.635 236.849C214.63 242.647 207.426 247.159 199.01 250.38L199.725 252.248C208.373 248.938 215.811 244.286 222.025 238.287L220.635 236.849ZM199.007 250.382C190.708 253.597 181.563 255.212 171.56 255.212V257.212C181.781 257.212 191.174 255.561 199.729 252.246L199.007 250.382ZM174.246 231.3C179.846 231.3 184.842 230.276 189.211 228.201L188.353 226.395C184.295 228.322 179.6 229.3 174.246 229.3V231.3ZM189.202 228.205C193.653 226.143 197.409 223.26 200.456 219.56L198.912 218.288C196.06 221.751 192.548 224.451 188.361 226.391L189.202 228.205ZM200.454 219.562C203.588 215.78 205.964 211.512 207.582 206.765L205.689 206.119C204.148 210.642 201.889 214.695 198.914 218.286L200.454 219.562ZM207.582 206.765C209.2 202.021 210.006 197.013 210.006 191.748H208.006C208.006 196.806 207.232 201.594 205.689 206.119L207.582 206.765ZM210.006 191.748C210.006 186.652 208.921 182.157 206.714 178.296L204.978 179.288C206.985 182.8 208.006 186.942 208.006 191.748H210.006ZM206.725 178.315C204.623 174.443 201.523 171.459 197.455 169.37L196.541 171.15C200.268 173.063 203.066 175.767 204.967 179.269L206.725 178.315ZM197.484 169.386C193.506 167.176 188.641 166.1 182.936 166.1V168.1C188.396 168.1 192.906 169.13 196.512 171.134L197.484 169.386ZM182.936 166.1C177.437 166.1 172.446 167.125 167.979 169.195L168.82 171.009C172.991 169.076 177.69 168.1 182.936 168.1V166.1ZM167.979 169.195C163.525 171.259 159.719 174.195 156.57 177.996L158.11 179.272C161.07 175.699 164.638 172.948 168.82 171.009L167.979 169.195ZM156.568 177.998C153.538 181.678 151.216 185.893 149.599 190.635L151.492 191.281C153.036 186.754 155.243 182.753 158.112 179.27L156.568 177.998ZM149.599 190.635C147.982 195.379 147.176 200.387 147.176 205.652H149.176C149.176 200.594 149.95 195.806 151.492 191.281L149.599 190.635ZM147.176 205.652C147.176 210.639 148.207 215.121 150.294 219.075L152.062 218.141C150.146 214.511 149.176 210.356 149.176 205.652H147.176ZM150.31 219.104C152.509 222.953 155.592 225.979 159.54 228.172L160.512 226.424C156.876 224.404 154.06 221.636 152.046 218.112L150.31 219.104ZM159.569 228.188C163.641 230.279 168.547 231.3 174.246 231.3V229.3C168.78 229.3 164.205 228.32 160.483 226.408L159.569 228.188ZM247.037 254L246.056 253.804L245.817 255H247.037V254ZM269.157 143.4V142.4H268.337L268.176 143.204L269.157 143.4ZM294.911 143.4L295.767 142.883L295.475 142.4H294.911V143.4ZM339.625 217.344L339.596 218.344L341.431 218.398L340.481 216.827L339.625 217.344ZM328.881 217.028L327.9 216.832L327.669 217.993L328.852 218.028L328.881 217.028ZM343.575 143.4V142.4H342.755L342.594 143.204L343.575 143.4ZM374.227 143.4L375.208 143.596L375.447 142.4H374.227V143.4ZM352.107 254V255H352.927L353.088 254.196L352.107 254ZM326.353 254L325.496 254.516L325.788 255H326.353V254ZM281.797 180.056L281.827 179.056L279.994 179.002L280.94 180.572L281.797 180.056ZM292.383 180.372L293.364 180.568L293.595 179.408L292.413 179.372L292.383 180.372ZM277.689 254V255H278.509L278.67 254.196L277.689 254ZM248.018 254.196L270.138 143.596L268.176 143.204L246.056 253.804L248.018 254.196ZM269.157 144.4H294.911V142.4H269.157V144.4ZM294.055 143.917L338.769 217.861L340.481 216.827L295.767 142.883L294.055 143.917ZM339.654 216.344L328.91 216.028L328.852 218.028L339.596 218.344L339.654 216.344ZM329.862 217.224L344.556 143.596L342.594 143.204L327.9 216.832L329.862 217.224ZM343.575 144.4H374.227V142.4H343.575V144.4ZM373.246 143.204L351.126 253.804L353.088 254.196L375.208 143.596L373.246 143.204ZM352.107 253H326.353V255H352.107V253ZM327.21 253.484L282.654 179.54L280.94 180.572L325.496 254.516L327.21 253.484ZM281.767 181.056L292.353 181.372L292.413 179.372L281.827 179.056L281.767 181.056ZM291.402 180.176L276.708 253.804L278.67 254.196L293.364 180.568L291.402 180.176ZM277.689 253H247.037V255H277.689V253ZM417.308 191.906V190.906H416.485L416.327 191.714L417.308 191.906ZM468.342 191.906L469.322 192.105L469.565 190.906H468.342V191.906ZM463.444 216.08V217.08H464.262L464.424 216.279L463.444 216.08ZM412.568 216.08L411.587 215.888L411.353 217.08H412.568V216.08ZM407.196 254V255H408.016L408.177 254.195L407.196 254ZM375.912 254L374.931 253.804L374.692 255H375.912V254ZM398.032 143.4V142.4H397.212L397.051 143.204L398.032 143.4ZM484.616 143.4L485.596 143.599L485.839 142.4H484.616V143.4ZM479.718 167.574V168.574H480.536L480.698 167.773L479.718 167.574ZM424.418 167.574V166.574H423.598L423.437 167.379L424.418 167.574ZM417.308 192.906H468.342V190.906H417.308V192.906ZM467.362 191.707L462.464 215.881L464.424 216.279L469.322 192.105L467.362 191.707ZM463.444 215.08H412.568V217.08H463.444V215.08ZM413.549 216.272L418.289 192.098L416.327 191.714L411.587 215.888L413.549 216.272ZM407.196 253H375.912V255H407.196V253ZM376.892 254.196L399.012 143.596L397.051 143.204L374.931 253.804L376.892 254.196ZM398.032 144.4H484.616V142.4H398.032V144.4ZM483.636 143.201L478.738 167.375L480.698 167.773L485.596 143.599L483.636 143.201ZM479.718 166.574H424.418V168.574H479.718V166.574ZM423.437 167.379L406.215 253.805L408.177 254.195L425.399 167.769L423.437 167.379ZM521.051 186.218V185.218H520.228L520.07 186.026L521.051 186.218ZM572.401 186.218L573.382 186.41L573.616 185.218H572.401V186.218ZM567.819 209.602V210.602H568.642L568.8 209.794L567.819 209.602ZM516.469 209.602L515.488 209.41L515.254 210.602H516.469V209.602ZM514.573 229.826L513.592 229.632L513.356 230.826H514.573V229.826ZM572.559 229.826L573.538 230.031L573.79 228.826H572.559V229.826ZM567.503 254V255H568.315L568.482 254.205L567.503 254ZM478.865 254L477.884 253.804L477.645 255H478.865V254ZM500.985 143.4V142.4H500.165L500.004 143.204L500.985 143.4ZM587.569 143.4L588.549 143.599L588.792 142.4H587.569V143.4ZM582.671 167.574V168.574H583.489L583.651 167.773L582.671 167.574ZM526.897 167.574V166.574H526.076L525.916 167.38L526.897 167.574ZM521.051 187.218H572.401V185.218H521.051V187.218ZM571.42 186.026L566.838 209.41L568.8 209.794L573.382 186.41L571.42 186.026ZM567.819 208.602H516.469V210.602H567.819V208.602ZM517.45 209.794L522.032 186.41L520.07 186.026L515.488 209.41L517.45 209.794ZM514.573 230.826H572.559V228.826H514.573V230.826ZM571.58 229.621L566.524 253.795L568.482 254.205L573.538 230.031L571.58 229.621ZM567.503 253H478.865V255H567.503V253ZM479.846 254.196L501.966 143.596L500.004 143.204L477.884 253.804L479.846 254.196ZM500.985 144.4H587.569V142.4H500.985V144.4ZM586.589 143.201L581.691 167.375L583.651 167.773L588.549 143.599L586.589 143.201ZM582.671 166.574H526.897V168.574H582.671V166.574ZM525.916 167.38L513.592 229.632L515.554 230.02L527.878 167.768L525.916 167.38ZM586.601 254L585.621 253.804L585.381 255H586.601V254ZM608.721 143.4V142.4H607.901L607.741 143.204L608.721 143.4ZM688.827 152.722L688.199 153.5L688.204 153.504L688.827 152.722ZM693.725 202.966L692.887 202.42L692.885 202.423L693.725 202.966ZM674.765 218.924L674.346 218.016L674.346 218.016L674.765 218.924ZM609.827 224.612L609.198 223.835L607.003 225.612H609.827V224.612ZM626.417 211.182L627.398 211.377L627.939 208.664L625.788 210.405L626.417 211.182ZM617.885 254V255H618.706L618.866 254.195L617.885 254ZM655.963 254L655.091 254.489L655.378 255H655.963V254ZM633.369 213.71V212.71H631.662L632.497 214.199L633.369 213.71ZM665.759 213.71L666.629 213.216L666.341 212.71H665.759V213.71ZM688.669 254V255H690.388L689.539 253.506L688.669 254ZM625.627 214.816L624.83 215.42L626.168 217.184L626.607 215.015L625.627 214.816ZM614.725 200.438V199.438H612.712L613.928 201.042L614.725 200.438ZM663.231 195.54L663.884 196.298L663.884 196.298L663.231 195.54ZM664.337 171.366L663.751 172.176L663.751 172.176L664.337 171.366ZM621.361 168.048L620.698 167.3L618.726 169.048H621.361V168.048ZM638.109 153.196L639.089 153.395L639.683 150.464L637.446 152.448L638.109 153.196ZM587.582 254.196L609.702 143.596L607.741 143.204L585.621 253.804L587.582 254.196ZM608.721 144.4H655.963V142.4H608.721V144.4ZM655.963 144.4C670.052 144.4 680.751 147.48 688.199 153.5L689.456 151.944C681.525 145.534 670.314 142.4 655.963 142.4V144.4ZM688.204 153.504C695.732 159.506 699.519 167.84 699.519 178.634H701.519C701.519 167.308 697.511 158.367 689.451 151.94L688.204 153.504ZM699.519 178.634C699.519 187.733 697.299 195.649 692.887 202.42L694.563 203.512C699.21 196.379 701.519 188.074 701.519 178.634H699.519ZM692.885 202.423C688.575 209.094 682.41 214.294 674.346 218.016L675.184 219.832C683.553 215.97 690.027 210.532 694.565 203.509L692.885 202.423ZM674.346 218.016C666.289 221.735 656.747 223.612 645.693 223.612V225.612C656.97 225.612 666.81 223.697 675.184 219.832L674.346 218.016ZM645.693 223.612H609.827V225.612H645.693V223.612ZM610.456 225.389L627.046 211.959L625.788 210.405L609.198 223.835L610.456 225.389ZM625.437 210.987L616.905 253.805L618.866 254.195L627.398 211.377L625.437 210.987ZM617.885 253H586.601V255H617.885V253ZM656.835 253.511L634.241 213.221L632.497 214.199L655.091 254.489L656.835 253.511ZM633.369 214.71H665.759V212.71H633.369V214.71ZM664.89 214.204L687.8 254.494L689.539 253.506L666.629 213.216L664.89 214.204ZM688.669 253H655.963V255H688.669V253ZM626.424 214.212L615.522 199.834L613.928 201.042L624.83 215.42L626.424 214.212ZM614.725 201.438H647.115V199.438H614.725V201.438ZM647.115 201.438C654.214 201.438 659.851 199.771 663.884 196.298L662.579 194.782C659.028 197.84 653.921 199.438 647.115 199.438V201.438ZM663.884 196.298C667.941 192.804 669.919 187.867 669.919 181.636H667.919C667.919 187.413 666.106 191.745 662.579 194.782L663.884 196.298ZM669.919 181.636C669.919 176.763 668.298 173 664.924 170.556L663.751 172.176C666.485 174.156 667.919 177.24 667.919 181.636H669.919ZM664.924 170.556C661.637 168.176 657.136 167.048 651.539 167.048V169.048C656.897 169.048 660.928 170.132 663.751 172.176L664.924 170.556ZM651.539 167.048H621.361V169.048H651.539V167.048ZM622.025 168.796L638.773 153.944L637.446 152.448L620.698 167.3L622.025 168.796ZM637.129 152.997L624.647 214.617L626.607 215.015L639.089 153.395L637.129 152.997ZM747.324 186.218V185.218H746.501L746.343 186.026L747.324 186.218ZM798.674 186.218L799.656 186.41L799.889 185.218H798.674V186.218ZM794.092 209.602V210.602H794.915L795.074 209.794L794.092 209.602ZM742.742 209.602L741.761 209.41L741.527 210.602H742.742V209.602ZM740.846 229.826L739.865 229.632L739.629 230.826H740.846V229.826ZM798.832 229.826L799.811 230.031L800.063 228.826H798.832V229.826ZM793.776 254V255H794.589L794.755 254.205L793.776 254ZM705.138 254L704.158 253.804L703.918 255H705.138V254ZM727.258 143.4V142.4H726.438L726.278 143.204L727.258 143.4ZM813.842 143.4L814.822 143.599L815.065 142.4H813.842V143.4ZM808.944 167.574V168.574H809.762L809.924 167.773L808.944 167.574ZM753.17 167.574V166.574H752.349L752.189 167.38L753.17 167.574ZM747.324 187.218H798.674V185.218H747.324V187.218ZM797.693 186.026L793.111 209.41L795.074 209.794L799.656 186.41L797.693 186.026ZM794.092 208.602H742.742V210.602H794.092V208.602ZM743.724 209.794L748.306 186.41L746.343 186.026L741.761 209.41L743.724 209.794ZM740.846 230.826H798.832V228.826H740.846V230.826ZM797.853 229.621L792.797 253.795L794.755 254.205L799.811 230.031L797.853 229.621ZM793.776 253H705.138V255H793.776V253ZM706.119 254.196L728.239 143.596L726.278 143.204L704.158 253.804L706.119 254.196ZM727.258 144.4H813.842V142.4H727.258V144.4ZM812.862 143.201L807.964 167.375L809.924 167.773L814.822 143.599L812.862 143.201ZM808.944 166.574H753.17V168.574H808.944V166.574ZM752.189 167.38L739.865 229.632L741.827 230.02L754.151 167.768L752.189 167.38ZM812.874 254L811.894 253.804L811.655 255H812.874V254ZM834.994 143.4V142.4H834.175L834.014 143.204L834.994 143.4ZM860.748 143.4L861.604 142.883L861.312 142.4H860.748V143.4ZM905.463 217.344L905.433 218.344L907.268 218.398L906.318 216.827L905.463 217.344ZM894.719 217.028L893.738 216.832L893.506 217.993L894.689 218.028L894.719 217.028ZM909.413 143.4V142.4H908.592L908.432 143.204L909.413 143.4ZM940.065 143.4L941.045 143.596L941.284 142.4H940.065V143.4ZM917.945 254V255H918.764L918.925 254.196L917.945 254ZM892.19 254L891.334 254.516L891.626 255H892.19V254ZM847.634 180.056L847.664 179.056L845.832 179.002L846.778 180.572L847.634 180.056ZM858.22 180.372L859.201 180.568L859.433 179.408L858.25 179.372L858.22 180.372ZM843.526 254V255H844.347L844.507 254.196L843.526 254ZM813.855 254.196L835.975 143.596L834.014 143.204L811.894 253.804L813.855 254.196ZM834.994 144.4H860.748V142.4H834.994V144.4ZM859.893 143.917L904.607 217.861L906.318 216.827L861.604 142.883L859.893 143.917ZM905.492 216.344L894.748 216.028L894.689 218.028L905.433 218.344L905.492 216.344ZM895.699 217.224L910.393 143.596L908.432 143.204L893.738 216.832L895.699 217.224ZM909.413 144.4H940.065V142.4H909.413V144.4ZM939.084 143.204L916.964 253.804L918.925 254.196L941.045 143.596L939.084 143.204ZM917.945 253H892.19V255H917.945V253ZM893.047 253.484L848.491 179.54L846.778 180.572L891.334 254.516L893.047 253.484ZM847.605 181.056L858.191 181.372L858.25 179.372L847.664 179.056L847.605 181.056ZM857.24 180.176L842.546 253.804L844.507 254.196L859.201 180.568L857.24 180.176ZM843.526 253H812.874V255H843.526V253ZM972.559 250.05L972.117 250.947L972.121 250.949L972.559 250.05ZM953.283 232.986L952.431 233.509L952.435 233.515L953.283 232.986ZM951.545 181.004L952.469 181.388L952.469 181.388L951.545 181.004ZM965.765 159.99L966.46 160.709L966.466 160.703L965.765 159.99ZM987.569 146.086L987.212 145.152L987.208 145.154L987.569 146.086ZM1043.03 146.56L1042.61 147.471L1042.61 147.471L1043.03 146.56ZM1060.72 162.044L1061.35 162.826L1062.02 162.289L1061.59 161.543L1060.72 162.044ZM1038.13 180.056L1037.27 180.57L1037.86 181.55L1038.75 180.838L1038.13 180.056ZM1028.18 170.418L1027.69 171.293L1027.7 171.298L1028.18 170.418ZM999.103 169.944L998.71 169.025L998.701 169.028L999.103 169.944ZM987.885 178.002L987.146 177.329L987.145 177.329L987.885 178.002ZM980.617 190.326L981.557 190.668L981.56 190.661L980.617 190.326ZM981.249 218.608L980.375 219.094L980.383 219.108L980.392 219.122L981.249 218.608ZM990.571 227.298L990.106 228.183L990.119 228.19L990.133 228.197L990.571 227.298ZM1019.33 227.298L1018.93 226.38L1018.92 226.383L1019.33 227.298ZM1032.13 217.502L1032.83 216.789L1032.06 216.04L1031.37 216.85L1032.13 217.502ZM1050.61 235.672L1051.38 236.311L1051.97 235.604L1051.31 234.959L1050.61 235.672ZM1029.12 251.63L1029.48 252.566L1029.49 252.562L1029.12 251.63ZM1002.11 255.212C990.956 255.212 981.263 253.18 972.998 249.151L972.121 250.949C980.709 255.136 990.713 257.212 1002.11 257.212V255.212ZM973.002 249.153C964.833 245.121 958.555 239.554 954.132 232.457L952.435 233.515C957.071 240.954 963.643 246.763 972.117 250.947L973.002 249.153ZM954.136 232.463C949.713 225.263 947.489 216.969 947.489 207.548H945.489C945.489 217.298 947.795 225.962 952.431 233.509L954.136 232.463ZM947.489 207.548C947.489 198.082 949.153 189.366 952.469 181.388L950.622 180.62C947.196 188.863 945.489 197.843 945.489 207.548H947.489ZM952.469 181.388C955.789 173.399 960.453 166.51 966.46 160.709L965.071 159.271C958.86 165.268 954.043 172.388 950.622 180.62L952.469 181.388ZM966.466 160.703C972.473 154.8 979.624 150.237 987.931 147.018L987.208 145.154C978.662 148.465 971.276 153.172 965.065 159.277L966.466 160.703ZM987.927 147.02C996.331 143.804 1005.64 142.188 1015.85 142.188V140.188C1005.42 140.188 995.872 141.838 987.212 145.152L987.927 147.02ZM1015.85 142.188C1025.95 142.188 1034.87 143.958 1042.61 147.471L1043.44 145.649C1035.39 142 1026.19 140.188 1015.85 140.188V142.188ZM1042.61 147.471C1050.35 150.976 1056.08 156.004 1059.86 162.545L1061.59 161.543C1057.58 154.601 1051.51 149.306 1043.44 145.649L1042.61 147.471ZM1060.1 161.262L1037.51 179.274L1038.75 180.838L1061.35 162.826L1060.1 161.262ZM1038.99 179.542C1036.37 175.182 1032.92 171.839 1028.65 169.538L1027.7 171.298C1031.64 173.421 1034.83 176.503 1037.27 180.57L1038.99 179.542ZM1028.66 169.543C1024.48 167.233 1019.51 166.1 1013.8 166.1V168.1C1019.25 168.1 1023.87 169.179 1027.69 171.293L1028.66 169.543ZM1013.8 166.1C1008.31 166.1 1003.27 167.07 998.71 169.025L999.497 170.863C1003.78 169.026 1008.55 168.1 1013.8 168.1V166.1ZM998.701 169.028C994.255 170.981 990.4 173.749 987.146 177.329L988.625 178.675C991.691 175.303 995.315 172.699 999.505 170.86L998.701 169.028ZM987.145 177.329C983.89 180.91 981.402 185.135 979.675 189.991L981.56 190.661C983.204 186.037 985.561 182.046 988.625 178.675L987.145 177.329ZM979.678 189.984C977.948 194.74 977.089 199.913 977.089 205.494H979.089C979.089 200.12 979.916 195.181 981.557 190.668L979.678 189.984ZM977.089 205.494C977.089 210.59 978.175 215.133 980.375 219.094L982.124 218.122C980.111 214.499 979.089 210.299 979.089 205.494H977.089ZM980.392 219.122C982.703 222.974 985.95 225.996 990.106 228.183L991.037 226.413C987.188 224.387 984.22 221.615 982.107 218.094L980.392 219.122ZM990.133 228.197C994.405 230.278 999.406 231.3 1005.11 231.3V229.3C999.643 229.3 994.954 228.321 991.009 226.399L990.133 228.197ZM1005.11 231.3C1010.2 231.3 1015.07 230.27 1019.73 228.213L1018.92 226.383C1014.52 228.328 1009.92 229.3 1005.11 229.3V231.3ZM1019.72 228.216C1024.52 226.145 1028.91 222.778 1032.88 218.154L1031.37 216.85C1027.55 221.285 1023.4 224.449 1018.93 226.38L1019.72 228.216ZM1031.42 218.215L1049.91 236.385L1051.31 234.959L1032.83 216.789L1031.42 218.215ZM1049.84 235.033C1043.72 242.397 1036.7 247.607 1028.76 250.698L1029.49 252.562C1037.77 249.333 1045.07 243.905 1051.38 236.311L1049.84 235.033ZM1028.77 250.694C1020.79 253.701 1011.9 255.212 1002.11 255.212V257.212C1012.11 257.212 1021.24 255.669 1029.48 252.566L1028.77 250.694ZM1102.16 186.218V185.218H1101.34L1101.18 186.026L1102.16 186.218ZM1153.51 186.218L1154.5 186.41L1154.73 185.218H1153.51V186.218ZM1148.93 209.602V210.602H1149.75L1149.91 209.794L1148.93 209.602ZM1097.58 209.602L1096.6 209.41L1096.37 210.602H1097.58V209.602ZM1095.69 229.826L1094.7 229.632L1094.47 230.826H1095.69V229.826ZM1153.67 229.826L1154.65 230.031L1154.9 228.826H1153.67V229.826ZM1148.62 254V255H1149.43L1149.59 254.205L1148.62 254ZM1059.98 254L1059 253.804L1058.76 255H1059.98V254ZM1082.1 143.4V142.4H1081.28L1081.12 143.204L1082.1 143.4ZM1168.68 143.4L1169.66 143.599L1169.9 142.4H1168.68V143.4ZM1163.78 167.574V168.574H1164.6L1164.76 167.773L1163.78 167.574ZM1108.01 167.574V166.574H1107.19L1107.03 167.38L1108.01 167.574ZM1102.16 187.218H1153.51V185.218H1102.16V187.218ZM1152.53 186.026L1147.95 209.41L1149.91 209.794L1154.5 186.41L1152.53 186.026ZM1148.93 208.602H1097.58V210.602H1148.93V208.602ZM1098.56 209.794L1103.15 186.41L1101.18 186.026L1096.6 209.41L1098.56 209.794ZM1095.69 230.826H1153.67V228.826H1095.69V230.826ZM1152.69 229.621L1147.64 253.795L1149.59 254.205L1154.65 230.031L1152.69 229.621ZM1148.62 253H1059.98V255H1148.62V253ZM1060.96 254.196L1083.08 143.596L1081.12 143.204L1059 253.804L1060.96 254.196ZM1082.1 144.4H1168.68V142.4H1082.1V144.4ZM1167.7 143.201L1162.8 167.375L1164.76 167.773L1169.66 143.599L1167.7 143.201ZM1163.78 166.574H1108.01V168.574H1163.78V166.574ZM1107.03 167.38L1094.7 229.632L1096.67 230.02L1108.99 167.768L1107.03 167.38Z" fill="#EB0028" mask="url(#path-1-outside-1_706_360)"/>
</g>
</svg>
