<svg width="583" height="114" viewBox="0 0 583 114" fill="none" xmlns="http://www.w3.org/2000/svg">
<g opacity="0.49">
<mask id="path-1-outside-1_716_415" maskUnits="userSpaceOnUse" x="-1" y="-1" width="586" height="116" fill="black">
<rect fill="white" x="-1" y="-1" width="586" height="116"/>
<path d="M25.498 111L0.376001 0.399992H32.45L53.622 96.306H33.24L93.438 0.399992H125.67L56.308 111H25.498ZM153.948 43.218H205.298L200.716 66.602H149.366L153.948 43.218ZM147.47 86.826H205.456L200.4 111H111.762L133.882 0.399992H220.466L215.568 24.574H159.794L147.47 86.826ZM219.499 111L241.619 0.399992H267.373L312.087 74.344L301.343 74.028L316.037 0.399992H346.689L324.569 111H298.815L254.259 37.056L264.845 37.372L250.151 111H219.499ZM402.251 113.212C391.191 113.212 381.922 111.105 374.443 106.892C367.07 102.573 361.856 96.5693 358.801 88.88C355.747 81.0853 355.22 72.0267 357.221 61.704L369.545 0.399992H400.829L388.663 61.23C387.821 65.654 387.557 69.4987 387.873 72.764C388.189 76.0293 389.085 78.768 390.559 80.98C392.139 83.192 394.193 84.8247 396.721 85.878C399.355 86.826 402.462 87.3 406.043 87.3C410.362 87.3 414.101 86.4573 417.261 84.772C420.527 82.9813 423.213 80.19 425.319 76.398C427.531 72.5007 429.217 67.4447 430.375 61.23L442.541 0.399992H473.351L460.869 63.126C457.604 79.558 451.073 92.04 441.277 100.572C431.481 108.999 418.473 113.212 402.251 113.212ZM516.348 43.218H567.698L563.116 66.602H511.766L516.348 43.218ZM509.87 86.826H567.856L562.8 111H474.162L496.282 0.399992H582.866L577.968 24.574H522.194L509.87 86.826Z"/>
</mask>
<path d="M25.498 111L24.5228 111.222L24.6997 112H25.498V111ZM0.376 0.399992V-0.600008H-0.876615L-0.599159 0.621492L0.376 0.399992ZM32.45 0.399992L33.4265 0.184425L33.2533 -0.600008H32.45V0.399992ZM53.622 96.306V97.306H54.8668L54.5985 96.0904L53.622 96.306ZM33.24 96.306L32.393 95.7744L31.4317 97.306H33.24V96.306ZM93.438 0.399992V-0.600008H92.885L92.591 -0.131636L93.438 0.399992ZM125.67 0.399992L126.517 0.931295L127.478 -0.600008H125.67V0.399992ZM56.308 111V112H56.8612L57.1552 111.531L56.308 111ZM26.4732 110.778L1.35116 0.178492L-0.599159 0.621492L24.5228 111.222L26.4732 110.778ZM0.376 1.39999H32.45V-0.600008H0.376V1.39999ZM31.4735 0.615561L52.6455 96.5216L54.5985 96.0904L33.4265 0.184425L31.4735 0.615561ZM53.622 95.306H33.24V97.306H53.622V95.306ZM34.087 96.8376L94.285 0.931622L92.591 -0.131636L32.393 95.7744L34.087 96.8376ZM93.438 1.39999H125.67V-0.600008H93.438V1.39999ZM124.823 -0.131311L55.4608 110.469L57.1552 111.531L126.517 0.931295L124.823 -0.131311ZM56.308 110H25.498V112H56.308V110ZM153.948 43.218V42.218H153.125L152.967 43.0257L153.948 43.218ZM205.298 43.218L206.28 43.4103L206.513 42.218H205.298V43.218ZM200.716 66.602V67.602H201.539L201.698 66.7943L200.716 66.602ZM149.366 66.602L148.385 66.4097L148.151 67.602H149.366V66.602ZM147.47 86.826L146.489 86.6318L146.253 87.826H147.47V86.826ZM205.456 86.826L206.435 87.0307L206.687 85.826H205.456V86.826ZM200.4 111V112H201.213L201.379 111.205L200.4 111ZM111.762 111L110.782 110.804L110.542 112H111.762V111ZM133.882 0.399992V-0.600008H133.062L132.902 0.203876L133.882 0.399992ZM220.466 0.399992L221.446 0.598572L221.689 -0.600008H220.466V0.399992ZM215.568 24.574V25.574H216.386L216.548 24.7726L215.568 24.574ZM159.794 24.574V23.574H158.973L158.813 24.3798L159.794 24.574ZM153.948 44.218H205.298V42.218H153.948V44.218ZM204.317 43.0257L199.735 66.4097L201.698 66.7943L206.28 43.4103L204.317 43.0257ZM200.716 65.602H149.366V67.602H200.716V65.602ZM150.348 66.7943L154.93 43.4103L152.967 43.0257L148.385 66.4097L150.348 66.7943ZM147.47 87.826H205.456V85.826H147.47V87.826ZM204.477 86.6213L199.421 110.795L201.379 111.205L206.435 87.0307L204.477 86.6213ZM200.4 110H111.762V112H200.4V110ZM112.743 111.196L134.863 0.596109L132.902 0.203876L110.782 110.804L112.743 111.196ZM133.882 1.39999H220.466V-0.600008H133.882V1.39999ZM219.486 0.201412L214.588 24.3754L216.548 24.7726L221.446 0.598572L219.486 0.201412ZM215.568 23.574H159.794V25.574H215.568V23.574ZM158.813 24.3798L146.489 86.6318L148.451 87.0202L160.775 24.7682L158.813 24.3798ZM219.499 111L218.518 110.804L218.279 112H219.499V111ZM241.619 0.399992V-0.600008H240.799L240.638 0.203876L241.619 0.399992ZM267.373 0.399992L268.228 -0.117458L267.936 -0.600008H267.373V0.399992ZM312.087 74.344L312.057 75.3436L313.892 75.3975L312.942 73.8265L312.087 74.344ZM301.343 74.028L300.362 73.8323L300.13 74.9928L301.313 75.0276L301.343 74.028ZM316.037 0.399992V-0.600008H315.216L315.056 0.204281L316.037 0.399992ZM346.689 0.399992L347.669 0.596109L347.908 -0.600008H346.689V0.399992ZM324.569 111V112H325.388L325.549 111.196L324.569 111ZM298.815 111L297.958 111.516L298.25 112H298.815V111ZM254.259 37.056L254.288 36.0564L252.456 36.0017L253.402 37.5721L254.259 37.056ZM264.845 37.372L265.825 37.5677L266.057 36.4077L264.874 36.3724L264.845 37.372ZM250.151 111V112H250.971L251.131 111.196L250.151 111ZM220.479 111.196L242.599 0.596109L240.638 0.203876L218.518 110.804L220.479 111.196ZM241.619 1.39999H267.373V-0.600008H241.619V1.39999ZM266.517 0.917442L311.231 74.8615L312.942 73.8265L268.228 -0.117458L266.517 0.917442ZM312.116 73.3444L301.372 73.0284L301.313 75.0276L312.057 75.3436L312.116 73.3444ZM302.323 74.2237L317.017 0.595703L315.056 0.204281L300.362 73.8323L302.323 74.2237ZM316.037 1.39999H346.689V-0.600008H316.037V1.39999ZM345.708 0.203876L323.588 110.804L325.549 111.196L347.669 0.596109L345.708 0.203876ZM324.569 110H298.815V112H324.569V110ZM299.671 110.484L255.115 36.5399L253.402 37.5721L297.958 111.516L299.671 110.484ZM254.229 38.0555L264.815 38.3716L264.874 36.3724L254.288 36.0564L254.229 38.0555ZM263.864 37.1763L249.17 110.804L251.131 111.196L265.825 37.5677L263.864 37.1763ZM250.151 110H219.499V112H250.151V110ZM374.443 106.892L373.938 107.755L373.945 107.759L373.953 107.763L374.443 106.892ZM358.801 88.88L357.87 89.2449L357.872 89.2492L358.801 88.88ZM357.221 61.704L356.241 61.5069L356.24 61.5137L357.221 61.704ZM369.545 0.399992V-0.600008H368.726L368.565 0.202904L369.545 0.399992ZM400.829 0.399992L401.81 0.596109L402.049 -0.600008H400.829V0.399992ZM388.663 61.23L387.683 61.0339L387.681 61.0429L388.663 61.23ZM387.873 72.764L386.878 72.8603L387.873 72.764ZM390.559 80.98L389.727 81.5347L389.736 81.5481L389.746 81.5612L390.559 80.98ZM396.721 85.878L396.337 86.8011L396.36 86.8105L396.383 86.8189L396.721 85.878ZM417.261 84.772L417.732 85.6544L417.742 85.6488L417.261 84.772ZM425.319 76.398L424.45 75.9044L424.445 75.9124L425.319 76.398ZM430.375 61.23L429.395 61.0339L429.392 61.0467L430.375 61.23ZM442.541 0.399992V-0.600008H441.722L441.561 0.203876L442.541 0.399992ZM473.351 0.399992L474.332 0.595158L474.57 -0.600008H473.351V0.399992ZM460.869 63.126L459.889 62.9308L459.889 62.9311L460.869 63.126ZM441.277 100.572L441.93 101.33L441.934 101.326L441.277 100.572ZM402.251 112.212C391.315 112.212 382.226 110.129 374.934 106.021L373.953 107.763C381.618 112.082 391.068 114.212 402.251 114.212V112.212ZM374.949 106.029C367.761 101.819 362.7 95.9857 359.731 88.5108L357.872 89.2492C361.012 97.153 366.379 103.328 373.938 107.755L374.949 106.029ZM359.733 88.5151C356.763 80.9371 356.229 72.0783 358.203 61.8943L356.24 61.5137C354.212 71.9751 354.731 81.2335 357.87 89.2449L359.733 88.5151ZM358.202 61.9011L370.526 0.59708L368.565 0.202904L356.241 61.5069L358.202 61.9011ZM369.545 1.39999H400.829V-0.600008H369.545V1.39999ZM399.849 0.203876L387.683 61.0339L389.644 61.4261L401.81 0.596109L399.849 0.203876ZM387.681 61.0429C386.827 65.5281 386.55 69.4726 386.878 72.8603L388.869 72.6677C388.565 69.5248 388.815 65.7799 389.646 61.4171L387.681 61.0429ZM386.878 72.8603C387.206 76.2517 388.142 79.1572 389.727 81.5347L391.392 80.4253C390.027 78.3788 389.173 75.8069 388.869 72.6677L386.878 72.8603ZM389.746 81.5612C391.435 83.9262 393.638 85.6766 396.337 86.8011L397.106 84.9549C394.749 83.9727 392.844 82.4578 391.373 80.3988L389.746 81.5612ZM396.383 86.8189C399.15 87.8152 402.377 88.3 406.043 88.3V86.3C402.547 86.3 399.559 85.8368 397.06 84.9371L396.383 86.8189ZM406.043 88.3C410.493 88.3 414.4 87.4313 417.732 85.6544L416.791 83.8896C413.803 85.4834 410.232 86.3 406.043 86.3V88.3ZM417.742 85.6488C421.199 83.7533 424.011 80.8128 426.194 76.8836L424.445 75.9124C422.415 79.5672 419.855 82.2093 416.781 83.8952L417.742 85.6488ZM426.189 76.8916C428.473 72.8671 430.187 67.6958 431.359 61.4133L429.392 61.0467C428.246 67.1935 426.59 72.1342 424.45 75.9044L426.189 76.8916ZM431.356 61.4261L443.522 0.596109L441.561 0.203876L429.395 61.0339L431.356 61.4261ZM442.541 1.39999H473.351V-0.600008H442.541V1.39999ZM472.371 0.204826L459.889 62.9308L461.85 63.3212L474.332 0.595158L472.371 0.204826ZM459.889 62.9311C456.654 79.2094 450.207 91.4687 440.621 99.8179L441.934 101.326C451.94 92.6113 458.554 79.9066 461.85 63.3209L459.889 62.9311ZM440.625 99.8139C431.053 108.048 418.297 112.212 402.251 112.212V114.212C418.649 114.212 431.909 109.95 441.93 101.33L440.625 99.8139ZM516.348 43.218V42.218H515.525L515.367 43.0257L516.348 43.218ZM567.698 43.218L568.68 43.4103L568.913 42.218H567.698V43.218ZM563.116 66.602V67.602H563.94L564.098 66.7943L563.116 66.602ZM511.766 66.602L510.785 66.4097L510.552 67.602H511.766V66.602ZM509.87 86.826L508.89 86.6318L508.653 87.826H509.87V86.826ZM567.856 86.826L568.835 87.0307L569.087 85.826H567.856V86.826ZM562.8 111V112H563.613L563.779 111.205L562.8 111ZM474.162 111L473.182 110.804L472.943 112H474.162V111ZM496.282 0.399992V-0.600008H495.463L495.302 0.203876L496.282 0.399992ZM582.866 0.399992L583.847 0.598572L584.089 -0.600008H582.866V0.399992ZM577.968 24.574V25.574H578.786L578.949 24.7726L577.968 24.574ZM522.194 24.574V23.574H521.373L521.214 24.3798L522.194 24.574ZM516.348 44.218H567.698V42.218H516.348V44.218ZM566.717 43.0257L562.135 66.4097L564.098 66.7943L568.68 43.4103L566.717 43.0257ZM563.116 65.602H511.766V67.602H563.116V65.602ZM512.748 66.7943L517.33 43.4103L515.367 43.0257L510.785 66.4097L512.748 66.7943ZM509.87 87.826H567.856V85.826H509.87V87.826ZM566.878 86.6213L561.822 110.795L563.779 111.205L568.835 87.0307L566.878 86.6213ZM562.8 110H474.162V112H562.8V110ZM475.143 111.196L497.263 0.596109L495.302 0.203876L473.182 110.804L475.143 111.196ZM496.282 1.39999H582.866V-0.600008H496.282V1.39999ZM581.886 0.201412L576.988 24.3754L578.949 24.7726L583.847 0.598572L581.886 0.201412ZM577.968 23.574H522.194V25.574H577.968V23.574ZM521.214 24.3798L508.89 86.6318L510.851 87.0202L523.175 24.7682L521.214 24.3798Z" fill="#EB0028" mask="url(#path-1-outside-1_716_415)"/>
</g>
</svg>
